<svg preserveAspectRatio="none" width="100%" height="100%" overflow="visible" style="display: block;" viewBox="0 0 20 20" fill="none" xmlns="http://www.w3.org/2000/svg">
<g id="Icon" clip-path="url(#clip0_0_25)">
<path id="Vector" d="M9.18083 2.34496C9.21654 2.1538 9.31798 1.98114 9.46758 1.85689C9.61718 1.73265 9.80553 1.66463 10 1.66463C10.1945 1.66463 10.3828 1.73265 10.5324 1.85689C10.682 1.98114 10.7835 2.1538 10.8192 2.34496L11.695 6.97663C11.7572 7.30592 11.9172 7.60881 12.1542 7.84577C12.3912 8.08273 12.694 8.24276 13.0233 8.30496L17.655 9.18079C17.8462 9.2165 18.0188 9.31794 18.1431 9.46754C18.2673 9.61715 18.3353 9.80549 18.3353 9.99996C18.3353 10.1944 18.2673 10.3828 18.1431 10.5324C18.0188 10.682 17.8462 10.7834 17.655 10.8191L13.0233 11.695C12.694 11.7572 12.3912 11.9172 12.1542 12.1542C11.9172 12.3911 11.7572 12.694 11.695 13.0233L10.8192 17.655C10.7835 17.8461 10.682 18.0188 10.5324 18.143C10.3828 18.2673 10.1945 18.3353 10 18.3353C9.80553 18.3353 9.61718 18.2673 9.46758 18.143C9.31798 18.0188 9.21654 17.8461 9.18083 17.655L8.305 13.0233C8.2428 12.694 8.08277 12.3911 7.84581 12.1542C7.60885 11.9172 7.30596 11.7572 6.97667 11.695L2.345 10.8191C2.15384 10.7834 1.98118 10.682 1.85693 10.5324C1.73269 10.3828 1.66467 10.1944 1.66467 9.99996C1.66467 9.80549 1.73269 9.61715 1.85693 9.46754C1.98118 9.31794 2.15384 9.2165 2.345 9.18079L6.97667 8.30496C7.30596 8.24276 7.60885 8.08273 7.84581 7.84577C8.08277 7.60881 8.2428 7.30592 8.305 6.97663L9.18083 2.34496Z" stroke="var(--stroke-0, #8A9A7B)" stroke-width="1.66667" stroke-linecap="round" stroke-linejoin="round"/>
<path id="Vector_2" d="M16.6667 1.66667V5" stroke="var(--stroke-0, #8A9A7B)" stroke-width="1.66667" stroke-linecap="round" stroke-linejoin="round"/>
<path id="Vector_3" d="M18.3333 3.33333H15" stroke="var(--stroke-0, #8A9A7B)" stroke-width="1.66667" stroke-linecap="round" stroke-linejoin="round"/>
<path id="Vector_4" d="M3.33333 18.3333C4.25381 18.3333 5 17.5871 5 16.6667C5 15.7462 4.25381 15 3.33333 15C2.41286 15 1.66667 15.7462 1.66667 16.6667C1.66667 17.5871 2.41286 18.3333 3.33333 18.3333Z" stroke="var(--stroke-0, #8A9A7B)" stroke-width="1.66667" stroke-linecap="round" stroke-linejoin="round"/>
</g>
<defs>
<clipPath id="clip0_0_25">
<rect width="20" height="20" fill="white"/>
</clipPath>
</defs>
</svg>
