<svg preserveAspectRatio="none" width="100%" height="100%" overflow="visible" style="display: block;" viewBox="0 0 32 32" fill="none" xmlns="http://www.w3.org/2000/svg">
<g id="Icon">
<path id="Vector" d="M14.6893 3.75194C14.7465 3.44607 14.9088 3.16982 15.1481 2.97103C15.3875 2.77223 15.6888 2.66341 16 2.66341C16.3112 2.66341 16.6125 2.77223 16.8519 2.97103C17.0912 3.16982 17.2535 3.44607 17.3107 3.75194L18.712 11.1626C18.8115 11.6895 19.0676 12.1741 19.4467 12.5532C19.8258 12.9324 20.3105 13.1884 20.8373 13.2879L28.248 14.6893C28.5539 14.7464 28.8301 14.9087 29.0289 15.1481C29.2277 15.3874 29.3365 15.6888 29.3365 15.9999C29.3365 16.3111 29.2277 16.6124 29.0289 16.8518C28.8301 17.0912 28.5539 17.2535 28.248 17.3106L20.8373 18.7119C20.3105 18.8115 19.8258 19.0675 19.4467 19.4466C19.0676 19.8258 18.8115 20.3104 18.712 20.8373L17.3107 28.2479C17.2535 28.5538 17.0912 28.83 16.8519 29.0288C16.6125 29.2276 16.3112 29.3365 16 29.3365C15.6888 29.3365 15.3875 29.2276 15.1481 29.0288C14.9088 28.83 14.7465 28.5538 14.6893 28.2479L13.288 20.8373C13.1885 20.3104 12.9324 19.8258 12.5533 19.4466C12.1742 19.0675 11.6895 18.8115 11.1627 18.7119L3.752 17.3106C3.44614 17.2535 3.16989 17.0912 2.97109 16.8518C2.77229 16.6124 2.66347 16.3111 2.66347 15.9999C2.66347 15.6888 2.77229 15.3874 2.97109 15.1481C3.16989 14.9087 3.44614 14.7464 3.752 14.6893L11.1627 13.2879C11.6895 13.1884 12.1742 12.9324 12.5533 12.5532C12.9324 12.1741 13.1885 11.6895 13.288 11.1626L14.6893 3.75194Z" stroke="var(--stroke-0, #6B7A64)" stroke-width="2.66667" stroke-linecap="round" stroke-linejoin="round"/>
<path id="Vector_2" d="M26.6667 2.66667V8" stroke="var(--stroke-0, #6B7A64)" stroke-width="2.66667" stroke-linecap="round" stroke-linejoin="round"/>
<path id="Vector_3" d="M29.3333 5.33333H24" stroke="var(--stroke-0, #6B7A64)" stroke-width="2.66667" stroke-linecap="round" stroke-linejoin="round"/>
<path id="Vector_4" d="M5.33333 29.3333C6.80609 29.3333 8 28.1394 8 26.6667C8 25.1939 6.80609 24 5.33333 24C3.86057 24 2.66667 25.1939 2.66667 26.6667C2.66667 28.1394 3.86057 29.3333 5.33333 29.3333Z" stroke="var(--stroke-0, #6B7A64)" stroke-width="2.66667" stroke-linecap="round" stroke-linejoin="round"/>
</g>
</svg>
