<svg preserveAspectRatio="none" width="100%" height="100%" overflow="visible" style="display: block;" viewBox="0 0 32 32" fill="none" xmlns="http://www.w3.org/2000/svg">
<g id="Icon">
<path id="Vector" d="M2.66667 12.6667C2.66669 11.183 3.11679 9.73416 3.95751 8.51161C4.79823 7.28905 5.99002 6.35026 7.37548 5.81925C8.76093 5.28824 10.2749 5.18998 11.7173 5.53745C13.1598 5.88491 14.463 6.66176 15.4547 7.76539C15.5245 7.84007 15.609 7.89961 15.7028 7.94032C15.7966 7.98103 15.8977 8.00203 16 8.00203C16.1023 8.00203 16.2034 7.98103 16.2972 7.94032C16.391 7.89961 16.4755 7.84007 16.5453 7.76539C17.5339 6.65459 18.8374 5.87121 20.2822 5.51952C21.727 5.16783 23.2447 5.26452 24.6332 5.7967C26.0217 6.32888 27.2152 7.27132 28.0548 8.49859C28.8945 9.72585 29.3404 11.1797 29.3333 12.6667C29.3333 15.7201 27.3333 18.0001 25.3333 20.0001L18.0107 27.0841C17.7622 27.3694 17.4559 27.5986 17.1121 27.7565C16.7682 27.9143 16.3947 27.9972 16.0164 27.9996C15.638 28.002 15.2635 27.9238 14.9177 27.7704C14.5719 27.6169 14.2627 27.3916 14.0107 27.1094L6.66667 20.0001C4.66667 18.0001 2.66667 15.7334 2.66667 12.6667Z" stroke="var(--stroke-0, #6B7A64)" stroke-width="2.66667" stroke-linecap="round" stroke-linejoin="round"/>
</g>
</svg>
