<svg preserveAspectRatio="none" width="100%" height="100%" overflow="visible" style="display: block;" viewBox="0 0 32 32" fill="none" xmlns="http://www.w3.org/2000/svg">
<g id="Icon" opacity="0.3">
<path id="Vector" d="M27.98 16.6479C27.855 18.9627 27.0622 21.1919 25.6974 23.0658C24.3326 24.9397 22.4542 26.3781 20.2894 27.2073C18.1245 28.0364 15.7658 28.2207 13.4984 27.7379C11.231 27.2551 9.15193 26.1259 7.51261 24.4868C5.87328 22.8476 4.74384 20.7687 4.26081 18.5014C3.77779 16.234 3.96185 13.8753 4.79076 11.7103C5.61967 9.54533 7.05794 7.6668 8.93169 6.3018C10.8054 4.93679 13.0345 4.14375 15.3493 4.01855C15.8893 3.98921 16.172 4.63188 15.8853 5.08921C14.9265 6.62329 14.516 8.43704 14.7207 10.2345C14.9254 12.0319 15.7332 13.7069 17.0124 14.9861C18.2916 16.2653 19.9666 17.0732 21.7641 17.2779C23.5615 17.4826 25.3753 17.072 26.9093 16.1132C27.368 15.8265 28.0093 16.1079 27.98 16.6479Z" stroke="var(--stroke-0, #6B7A64)" stroke-width="2.66667" stroke-linecap="round" stroke-linejoin="round"/>
</g>
</svg>
